# MagicaVoxel @ Ephtracy

# group
o 

# material
mtllib blue mongus.mtl
usemtl palette

# normals
vn -1 0 0
vn 1 0 0
vn 0 0 1
vn 0 0 -1
vn 0 -1 0
vn 0 1 0

# texcoords
vt 0.0917969 0.5
vt 0.705078 0.5
vt 0.919922 0.5
vt 0.958984 0.5

# verts
v -0.7 1 0.2
v -0.7 1 -0.2
v -0.7 2.5 0.2
v -0.7 2.5 -0.2
v -0.6 0.1 0.1
v -0.6 0.1 -0.1
v -0.6 0.8 0.2
v -0.6 0.8 0.1
v -0.6 0.8 -0.1
v -0.6 0.8 -0.2
v -0.6 1 0.3
v -0.6 1 0.2
v -0.6 1 -0.2
v -0.6 1 -0.3
v -0.6 2.5 0.3
v -0.6 2.5 0.2
v -0.6 2.5 -0.2
v -0.6 2.5 -0.3
v -0.6 2.6 0.2
v -0.6 2.6 -0.2
v -0.5 0 0.1
v -0.5 0 -0.1
v -0.5 0.1 0.2
v -0.5 0.1 0.1
v -0.5 0.1 -0.1
v -0.5 0.1 -0.2
v -0.5 0.8 0.2
v -0.5 0.8 0.1
v -0.5 0.8 -0.1
v -0.5 0.8 -0.2
v -0.5 0.9 0.3
v -0.5 0.9 0.2
v -0.5 0.9 -0.2
v -0.5 0.9 -0.3
v -0.5 1 0.3
v -0.5 1 0.2
v -0.5 1 -0.2
v -0.5 1 -0.3
v -0.5 1.1 0.4
v -0.5 1.1 0.3
v -0.5 2.5 0.4
v -0.5 2.5 0.3
v -0.5 2.6 0.2
v -0.5 2.6 -0.2
v -0.5 2.7 0.2
v -0.5 2.7 -0.2
v -0.4 1 0.4
v -0.4 1 0.3
v -0.4 1.1 0.4
v -0.4 1.1 0.3
v -0.4 2 0.5
v -0.4 2 0.4
v -0.4 2.3 0.5
v -0.4 2.3 0.4
v -0.4 2.5 0.3
v -0.4 2.5 0.2
v -0.4 2.5 -0.2
v -0.4 2.5 -0.3
v -0.4 2.6 0.3
v -0.4 2.6 0.2
v -0.4 2.6 -0.2
v -0.4 2.6 -0.3
v -0.3 1.2 -0.3
v -0.3 1.2 -0.5
v -0.3 1.9 0.5
v -0.3 1.9 0.4
v -0.3 2 0.5
v -0.3 2 0.4
v -0.3 2.1 0.6
v -0.3 2.1 0.5
v -0.3 2.2 0.6
v -0.3 2.2 0.5
v -0.3 2.3 0.5
v -0.3 2.3 0.4
v -0.3 2.3 -0.3
v -0.3 2.3 -0.5
v -0.3 2.4 0.5
v -0.3 2.4 0.4
v -0.3 2.7 0.1
v -0.3 2.7 -0.1
v -0.3 2.8 0.1
v -0.3 2.8 -0.1
v -0.2 2 0.6
v -0.2 2 0.5
v -0.2 2.1 0.6
v -0.2 2.1 0.5
v -0.2 2.2 0.6
v -0.2 2.2 0.5
v -0.2 2.3 0.6
v -0.2 2.3 0.5
v 0.1 0.7 0.1
v 0.1 0.7 -0.1
v 0.1 0.8 0.1
v 0.1 0.8 -0.1
v 0.2 0.1 0.1
v 0.2 0.1 -0.1
v 0.2 0.7 0.1
v 0.2 0.7 -0.1
v 0.2 0.8 0.2
v 0.2 0.8 0.1
v 0.2 0.8 -0.1
v 0.2 0.8 -0.2
v 0.2 0.9 0.2
v 0.2 0.9 0.1
v 0.2 0.9 -0.1
v 0.2 0.9 -0.2
v 0.3 0 0.1
v 0.3 0 -0.1
v 0.3 0.1 0.2
v 0.3 0.1 0.1
v 0.3 0.1 -0.1
v 0.3 0.1 -0.2
v 0.3 0.8 0.2
v 0.3 0.8 0.1
v 0.3 0.8 -0.1
v 0.3 0.8 -0.2
v -0.3 0 0.1
v -0.3 0 -0.1
v -0.3 0.1 0.2
v -0.3 0.1 0.1
v -0.3 0.1 -0.1
v -0.3 0.1 -0.2
v -0.3 0.8 0.2
v -0.3 0.8 0.1
v -0.3 0.8 -0.1
v -0.3 0.8 -0.2
v -0.2 0.1 0.1
v -0.2 0.1 -0.1
v -0.2 0.7 0.1
v -0.2 0.7 -0.1
v -0.2 0.8 0.2
v -0.2 0.8 0.1
v -0.2 0.8 -0.1
v -0.2 0.8 -0.2
v -0.2 0.9 0.2
v -0.2 0.9 0.1
v -0.2 0.9 -0.1
v -0.2 0.9 -0.2
v -0.1 0.7 0.1
v -0.1 0.7 -0.1
v -0.1 0.8 0.1
v -0.1 0.8 -0.1
v 0.2 2 0.6
v 0.2 2 0.5
v 0.2 2.1 0.6
v 0.2 2.1 0.5
v 0.2 2.2 0.6
v 0.2 2.2 0.5
v 0.2 2.3 0.6
v 0.2 2.3 0.5
v 0.3 1.2 -0.3
v 0.3 1.2 -0.5
v 0.3 1.9 0.5
v 0.3 1.9 0.4
v 0.3 2 0.5
v 0.3 2 0.4
v 0.3 2.1 0.6
v 0.3 2.1 0.5
v 0.3 2.2 0.6
v 0.3 2.2 0.5
v 0.3 2.3 0.5
v 0.3 2.3 0.4
v 0.3 2.3 -0.3
v 0.3 2.3 -0.5
v 0.3 2.4 0.5
v 0.3 2.4 0.4
v 0.3 2.7 0.1
v 0.3 2.7 -0.1
v 0.3 2.8 0.1
v 0.3 2.8 -0.1
v 0.4 1 0.4
v 0.4 1 0.3
v 0.4 1.1 0.4
v 0.4 1.1 0.3
v 0.4 2 0.5
v 0.4 2 0.4
v 0.4 2.3 0.5
v 0.4 2.3 0.4
v 0.4 2.5 0.3
v 0.4 2.5 0.2
v 0.4 2.5 -0.2
v 0.4 2.5 -0.3
v 0.4 2.6 0.3
v 0.4 2.6 0.2
v 0.4 2.6 -0.2
v 0.4 2.6 -0.3
v 0.5 0 0.1
v 0.5 0 -0.1
v 0.5 0.1 0.2
v 0.5 0.1 0.1
v 0.5 0.1 -0.1
v 0.5 0.1 -0.2
v 0.5 0.8 0.2
v 0.5 0.8 0.1
v 0.5 0.8 -0.1
v 0.5 0.8 -0.2
v 0.5 0.9 0.3
v 0.5 0.9 0.2
v 0.5 0.9 -0.2
v 0.5 0.9 -0.3
v 0.5 1 0.3
v 0.5 1 0.2
v 0.5 1 -0.2
v 0.5 1 -0.3
v 0.5 1.1 0.4
v 0.5 1.1 0.3
v 0.5 2.5 0.4
v 0.5 2.5 0.3
v 0.5 2.6 0.2
v 0.5 2.6 -0.2
v 0.5 2.7 0.2
v 0.5 2.7 -0.2
v 0.6 0.1 0.1
v 0.6 0.1 -0.1
v 0.6 0.8 0.2
v 0.6 0.8 0.1
v 0.6 0.8 -0.1
v 0.6 0.8 -0.2
v 0.6 1 0.3
v 0.6 1 0.2
v 0.6 1 -0.2
v 0.6 1 -0.3
v 0.6 2.5 0.3
v 0.6 2.5 0.2
v 0.6 2.5 -0.2
v 0.6 2.5 -0.3
v 0.6 2.6 0.2
v 0.6 2.6 -0.2
v 0.7 1 0.2
v 0.7 1 -0.2
v 0.7 2.5 0.2
v 0.7 2.5 -0.2
v -0.3 2.1 0.6
v -0.3 2.2 0.6
v -0.2 2 0.6
v -0.2 2.1 0.6
v -0.2 2.2 0.6
v -0.2 2.3 0.6
v 0 2.2 0.6
v 0 2.3 0.6
v 0.2 2 0.6
v 0.2 2.1 0.6
v 0.2 2.2 0.6
v 0.2 2.3 0.6
v 0.3 2.1 0.6
v 0.3 2.2 0.6
v -0.4 2 0.5
v -0.4 2.3 0.5
v -0.3 1.9 0.5
v -0.3 2 0.5
v -0.3 2.1 0.5
v -0.3 2.2 0.5
v -0.3 2.3 0.5
v -0.3 2.4 0.5
v -0.2 2 0.5
v -0.2 2.1 0.5
v -0.2 2.2 0.5
v -0.2 2.3 0.5
v 0 2.3 0.5
v 0.2 2 0.5
v 0.2 2.1 0.5
v 0.2 2.2 0.5
v 0.2 2.3 0.5
v 0.3 1.9 0.5
v 0.3 2 0.5
v 0.3 2.1 0.5
v 0.3 2.2 0.5
v 0.3 2.3 0.5
v 0.3 2.4 0.5
v 0.4 2 0.5
v 0.4 2.3 0.5
v -0.5 1.1 0.4
v -0.5 2.5 0.4
v -0.4 1 0.4
v -0.4 1.1 0.4
v -0.4 2 0.4
v -0.4 2.3 0.4
v -0.3 1.9 0.4
v -0.3 2 0.4
v -0.3 2.3 0.4
v -0.3 2.4 0.4
v 0.3 1.9 0.4
v 0.3 2 0.4
v 0.3 2.3 0.4
v 0.3 2.4 0.4
v 0.4 1 0.4
v 0.4 1.1 0.4
v 0.4 2 0.4
v 0.4 2.3 0.4
v 0.5 1.1 0.4
v 0.5 2.5 0.4
v -0.6 1 0.3
v -0.6 2.5 0.3
v -0.5 0.9 0.3
v -0.5 1 0.3
v -0.5 1.1 0.3
v -0.5 2.5 0.3
v -0.4 1 0.3
v -0.4 1.1 0.3
v -0.4 2.5 0.3
v -0.4 2.6 0.3
v 0.4 1 0.3
v 0.4 1.1 0.3
v 0.4 2.5 0.3
v 0.4 2.6 0.3
v 0.5 0.9 0.3
v 0.5 1 0.3
v 0.5 1.1 0.3
v 0.5 2.5 0.3
v 0.6 1 0.3
v 0.6 2.5 0.3
v -0.7 1 0.2
v -0.7 2.5 0.2
v -0.6 0.8 0.2
v -0.6 1 0.2
v -0.6 2.5 0.2
v -0.6 2.6 0.2
v -0.5 0.1 0.2
v -0.5 0.8 0.2
v -0.5 0.9 0.2
v -0.5 1 0.2
v -0.5 2.6 0.2
v -0.5 2.7 0.2
v -0.4 2.5 0.2
v -0.4 2.6 0.2
v -0.3 0.1 0.2
v -0.3 0.8 0.2
v -0.2 0.8 0.2
v -0.2 0.9 0.2
v 0.2 0.8 0.2
v 0.2 0.9 0.2
v 0.3 0.1 0.2
v 0.3 0.8 0.2
v 0.4 2.5 0.2
v 0.4 2.6 0.2
v 0.5 0.1 0.2
v 0.5 0.8 0.2
v 0.5 0.9 0.2
v 0.5 1 0.2
v 0.5 2.6 0.2
v 0.5 2.7 0.2
v 0.6 0.8 0.2
v 0.6 1 0.2
v 0.6 2.5 0.2
v 0.6 2.6 0.2
v 0.7 1 0.2
v 0.7 2.5 0.2
v -0.6 0.1 0.1
v -0.6 0.8 0.1
v -0.5 0 0.1
v -0.5 0.1 0.1
v -0.5 0.8 0.1
v -0.3 0 0.1
v -0.3 0.1 0.1
v -0.3 0.8 0.1
v -0.3 2.7 0.1
v -0.3 2.8 0.1
v -0.2 0.1 0.1
v -0.2 0.7 0.1
v -0.2 0.8 0.1
v -0.2 0.9 0.1
v -0.1 0.7 0.1
v -0.1 0.8 0.1
v 0.1 0.7 0.1
v 0.1 0.8 0.1
v 0.2 0.1 0.1
v 0.2 0.7 0.1
v 0.2 0.8 0.1
v 0.2 0.9 0.1
v 0.3 0 0.1
v 0.3 0.1 0.1
v 0.3 0.8 0.1
v 0.3 2.7 0.1
v 0.3 2.8 0.1
v 0.5 0 0.1
v 0.5 0.1 0.1
v 0.5 0.8 0.1
v 0.6 0.1 0.1
v 0.6 0.8 0.1
v -0.6 0.1 -0.1
v -0.6 0.8 -0.1
v -0.5 0 -0.1
v -0.5 0.1 -0.1
v -0.5 0.8 -0.1
v -0.3 0 -0.1
v -0.3 0.1 -0.1
v -0.3 0.8 -0.1
v -0.3 2.7 -0.1
v -0.3 2.8 -0.1
v -0.2 0.1 -0.1
v -0.2 0.7 -0.1
v -0.2 0.8 -0.1
v -0.2 0.9 -0.1
v -0.1 0.7 -0.1
v -0.1 0.8 -0.1
v 0.1 0.7 -0.1
v 0.1 0.8 -0.1
v 0.2 0.1 -0.1
v 0.2 0.7 -0.1
v 0.2 0.8 -0.1
v 0.2 0.9 -0.1
v 0.3 0 -0.1
v 0.3 0.1 -0.1
v 0.3 0.8 -0.1
v 0.3 2.7 -0.1
v 0.3 2.8 -0.1
v 0.5 0 -0.1
v 0.5 0.1 -0.1
v 0.5 0.8 -0.1
v 0.6 0.1 -0.1
v 0.6 0.8 -0.1
v -0.7 1 -0.2
v -0.7 2.5 -0.2
v -0.6 0.8 -0.2
v -0.6 1 -0.2
v -0.6 2.5 -0.2
v -0.6 2.6 -0.2
v -0.5 0.1 -0.2
v -0.5 0.8 -0.2
v -0.5 0.9 -0.2
v -0.5 1 -0.2
v -0.5 2.6 -0.2
v -0.5 2.7 -0.2
v -0.4 2.5 -0.2
v -0.4 2.6 -0.2
v -0.3 0.1 -0.2
v -0.3 0.8 -0.2
v -0.2 0.8 -0.2
v -0.2 0.9 -0.2
v 0.2 0.8 -0.2
v 0.2 0.9 -0.2
v 0.3 0.1 -0.2
v 0.3 0.8 -0.2
v 0.4 2.5 -0.2
v 0.4 2.6 -0.2
v 0.5 0.1 -0.2
v 0.5 0.8 -0.2
v 0.5 0.9 -0.2
v 0.5 1 -0.2
v 0.5 2.6 -0.2
v 0.5 2.7 -0.2
v 0.6 0.8 -0.2
v 0.6 1 -0.2
v 0.6 2.5 -0.2
v 0.6 2.6 -0.2
v 0.7 1 -0.2
v 0.7 2.5 -0.2
v -0.6 1 -0.3
v -0.6 2.5 -0.3
v -0.5 0.9 -0.3
v -0.5 1 -0.3
v -0.4 2.5 -0.3
v -0.4 2.6 -0.3
v -0.3 1.2 -0.3
v -0.3 2.3 -0.3
v 0.3 1.2 -0.3
v 0.3 2.3 -0.3
v 0.4 2.5 -0.3
v 0.4 2.6 -0.3
v 0.5 0.9 -0.3
v 0.5 1 -0.3
v 0.6 1 -0.3
v 0.6 2.5 -0.3
v -0.3 1.2 -0.5
v -0.3 2.3 -0.5
v 0.3 1.2 -0.5
v 0.3 2.3 -0.5
v -0.5 0 0.1
v -0.3 0 0.1
v 0.3 0 0.1
v 0.5 0 0.1
v -0.5 0 -0.1
v -0.3 0 -0.1
v 0.3 0 -0.1
v 0.5 0 -0.1
v -0.5 0.1 0.2
v -0.3 0.1 0.2
v 0.3 0.1 0.2
v 0.5 0.1 0.2
v -0.6 0.1 0.1
v -0.5 0.1 0.1
v -0.3 0.1 0.1
v -0.2 0.1 0.1
v 0.2 0.1 0.1
v 0.3 0.1 0.1
v 0.5 0.1 0.1
v 0.6 0.1 0.1
v -0.6 0.1 -0.1
v -0.5 0.1 -0.1
v -0.3 0.1 -0.1
v -0.2 0.1 -0.1
v 0.2 0.1 -0.1
v 0.3 0.1 -0.1
v 0.5 0.1 -0.1
v 0.6 0.1 -0.1
v -0.5 0.1 -0.2
v -0.3 0.1 -0.2
v 0.3 0.1 -0.2
v 0.5 0.1 -0.2
v -0.2 0.7 0.1
v -0.1 0.7 0.1
v 0.1 0.7 0.1
v 0.2 0.7 0.1
v -0.2 0.7 -0.1
v -0.1 0.7 -0.1
v 0.1 0.7 -0.1
v 0.2 0.7 -0.1
v -0.6 0.8 0.2
v -0.5 0.8 0.2
v -0.3 0.8 0.2
v -0.2 0.8 0.2
v 0.2 0.8 0.2
v 0.3 0.8 0.2
v 0.5 0.8 0.2
v 0.6 0.8 0.2
v -0.6 0.8 0.1
v -0.5 0.8 0.1
v -0.3 0.8 0.1
v -0.2 0.8 0.1
v -0.1 0.8 0.1
v 0.1 0.8 0.1
v 0.2 0.8 0.1
v 0.3 0.8 0.1
v 0.5 0.8 0.1
v 0.6 0.8 0.1
v -0.6 0.8 -0.1
v -0.5 0.8 -0.1
v -0.3 0.8 -0.1
v -0.2 0.8 -0.1
v -0.1 0.8 -0.1
v 0.1 0.8 -0.1
v 0.2 0.8 -0.1
v 0.3 0.8 -0.1
v 0.5 0.8 -0.1
v 0.6 0.8 -0.1
v -0.6 0.8 -0.2
v -0.5 0.8 -0.2
v -0.3 0.8 -0.2
v -0.2 0.8 -0.2
v 0.2 0.8 -0.2
v 0.3 0.8 -0.2
v 0.5 0.8 -0.2
v 0.6 0.8 -0.2
v -0.5 0.9 0.3
v 0.5 0.9 0.3
v -0.5 0.9 0.2
v -0.2 0.9 0.2
v 0.2 0.9 0.2
v 0.5 0.9 0.2
v -0.2 0.9 0.1
v 0.2 0.9 0.1
v -0.2 0.9 -0.1
v 0.2 0.9 -0.1
v -0.5 0.9 -0.2
v -0.2 0.9 -0.2
v 0.2 0.9 -0.2
v 0.5 0.9 -0.2
v -0.5 0.9 -0.3
v 0.5 0.9 -0.3
v -0.4 1 0.4
v 0.4 1 0.4
v -0.6 1 0.3
v -0.5 1 0.3
v -0.4 1 0.3
v 0.4 1 0.3
v 0.5 1 0.3
v 0.6 1 0.3
v -0.7 1 0.2
v -0.6 1 0.2
v -0.5 1 0.2
v 0.5 1 0.2
v 0.6 1 0.2
v 0.7 1 0.2
v -0.7 1 -0.2
v -0.6 1 -0.2
v -0.5 1 -0.2
v 0.5 1 -0.2
v 0.6 1 -0.2
v 0.7 1 -0.2
v -0.6 1 -0.3
v -0.5 1 -0.3
v 0.5 1 -0.3
v 0.6 1 -0.3
v -0.5 1.1 0.4
v -0.4 1.1 0.4
v 0.4 1.1 0.4
v 0.5 1.1 0.4
v -0.5 1.1 0.3
v -0.4 1.1 0.3
v 0.4 1.1 0.3
v 0.5 1.1 0.3
v -0.3 1.2 -0.3
v 0.3 1.2 -0.3
v -0.3 1.2 -0.5
v 0.3 1.2 -0.5
v -0.3 1.9 0.5
v 0.3 1.9 0.5
v -0.3 1.9 0.4
v 0.3 1.9 0.4
v -0.2 2 0.6
v 0.2 2 0.6
v -0.4 2 0.5
v -0.3 2 0.5
v -0.2 2 0.5
v 0.2 2 0.5
v 0.3 2 0.5
v 0.4 2 0.5
v -0.4 2 0.4
v -0.3 2 0.4
v 0.3 2 0.4
v 0.4 2 0.4
v -0.3 2.1 0.6
v -0.2 2.1 0.6
v 0.2 2.1 0.6
v 0.3 2.1 0.6
v -0.3 2.1 0.5
v -0.2 2.1 0.5
v 0.2 2.1 0.5
v 0.3 2.1 0.5
v -0.3 2.2 0.6
v -0.2 2.2 0.6
v 0.2 2.2 0.6
v 0.3 2.2 0.6
v -0.3 2.2 0.5
v -0.2 2.2 0.5
v 0.2 2.2 0.5
v 0.3 2.2 0.5
v -0.2 2.3 0.6
v 0 2.3 0.6
v 0.2 2.3 0.6
v -0.4 2.3 0.5
v -0.3 2.3 0.5
v -0.2 2.3 0.5
v 0 2.3 0.5
v 0.2 2.3 0.5
v 0.3 2.3 0.5
v 0.4 2.3 0.5
v -0.4 2.3 0.4
v -0.3 2.3 0.4
v 0.3 2.3 0.4
v 0.4 2.3 0.4
v -0.3 2.3 -0.3
v 0.3 2.3 -0.3
v -0.3 2.3 -0.5
v 0.3 2.3 -0.5
v -0.3 2.4 0.5
v 0.3 2.4 0.5
v -0.3 2.4 0.4
v 0.3 2.4 0.4
v -0.5 2.5 0.4
v 0.5 2.5 0.4
v -0.6 2.5 0.3
v -0.5 2.5 0.3
v -0.4 2.5 0.3
v 0.4 2.5 0.3
v 0.5 2.5 0.3
v 0.6 2.5 0.3
v -0.7 2.5 0.2
v -0.6 2.5 0.2
v -0.4 2.5 0.2
v 0.4 2.5 0.2
v 0.6 2.5 0.2
v 0.7 2.5 0.2
v -0.7 2.5 -0.2
v -0.6 2.5 -0.2
v -0.4 2.5 -0.2
v 0.4 2.5 -0.2
v 0.6 2.5 -0.2
v 0.7 2.5 -0.2
v -0.6 2.5 -0.3
v -0.4 2.5 -0.3
v 0.4 2.5 -0.3
v 0.6 2.5 -0.3
v -0.4 2.6 0.3
v 0.4 2.6 0.3
v -0.6 2.6 0.2
v -0.5 2.6 0.2
v -0.4 2.6 0.2
v 0.4 2.6 0.2
v 0.5 2.6 0.2
v 0.6 2.6 0.2
v -0.6 2.6 -0.2
v -0.5 2.6 -0.2
v -0.4 2.6 -0.2
v 0.4 2.6 -0.2
v 0.5 2.6 -0.2
v 0.6 2.6 -0.2
v -0.4 2.6 -0.3
v 0.4 2.6 -0.3
v -0.5 2.7 0.2
v 0.5 2.7 0.2
v -0.3 2.7 0.1
v 0.3 2.7 0.1
v -0.3 2.7 -0.1
v 0.3 2.7 -0.1
v -0.5 2.7 -0.2
v 0.5 2.7 -0.2
v -0.3 2.8 0.1
v 0.3 2.8 0.1
v -0.3 2.8 -0.1
v 0.3 2.8 -0.1

# faces
f 3/3/1 2/3/1 1/3/1
f 4/3/1 2/3/1 3/3/1
f 8/3/1 6/3/1 5/3/1
f 9/3/1 6/3/1 8/3/1
f 12/3/1 8/3/1 7/3/1
f 12/3/1 10/3/1 9/3/1
f 12/3/1 9/3/1 8/3/1
f 13/3/1 10/3/1 12/3/1
f 15/3/1 12/3/1 11/3/1
f 16/3/1 12/3/1 15/3/1
f 17/3/1 14/3/1 13/3/1
f 18/3/1 14/3/1 17/3/1
f 19/3/1 17/3/1 16/3/1
f 20/3/1 17/3/1 19/3/1
f 24/3/1 22/3/1 21/3/1
f 25/3/1 22/3/1 24/3/1
f 27/3/1 24/3/1 23/3/1
f 28/3/1 24/3/1 27/3/1
f 29/3/1 26/3/1 25/3/1
f 30/3/1 26/3/1 29/3/1
f 35/3/1 32/3/1 31/3/1
f 36/3/1 32/3/1 35/3/1
f 37/3/1 34/3/1 33/3/1
f 38/3/1 34/3/1 37/3/1
f 41/3/1 40/3/1 39/3/1
f 42/3/1 40/3/1 41/3/1
f 45/3/1 44/3/1 43/3/1
f 46/3/1 44/3/1 45/3/1
f 49/3/1 48/3/1 47/3/1
f 50/3/1 48/3/1 49/3/1
f 53/2/1 52/2/1 51/2/1
f 54/2/1 52/2/1 53/2/1
f 59/3/1 56/3/1 55/3/1
f 60/3/1 56/3/1 59/3/1
f 61/3/1 58/3/1 57/3/1
f 62/3/1 58/3/1 61/3/1
f 67/2/1 66/2/1 65/2/1
f 68/2/1 66/2/1 67/2/1
f 71/2/1 70/2/1 69/2/1
f 72/2/1 70/2/1 71/2/1
f 75/3/1 64/3/1 63/3/1
f 76/3/1 64/3/1 75/3/1
f 77/2/1 74/2/1 73/2/1
f 78/2/1 74/2/1 77/2/1
f 81/3/1 80/3/1 79/3/1
f 82/3/1 80/3/1 81/3/1
f 85/2/1 84/2/1 83/2/1
f 86/2/1 84/2/1 85/2/1
f 89/2/1 88/2/1 87/2/1
f 90/2/1 88/2/1 89/2/1
f 93/3/1 92/3/1 91/3/1
f 94/3/1 92/3/1 93/3/1
f 97/3/1 96/3/1 95/3/1
f 98/3/1 96/3/1 97/3/1
f 103/3/1 100/3/1 99/3/1
f 104/3/1 100/3/1 103/3/1
f 105/3/1 102/3/1 101/3/1
f 106/3/1 102/3/1 105/3/1
f 110/3/1 108/3/1 107/3/1
f 111/3/1 108/3/1 110/3/1
f 113/3/1 110/3/1 109/3/1
f 114/3/1 110/3/1 113/3/1
f 115/3/1 112/3/1 111/3/1
f 116/3/1 112/3/1 115/3/1
f 117/3/2 118/3/2 120/3/2
f 120/3/2 118/3/2 121/3/2
f 119/3/2 120/3/2 123/3/2
f 123/3/2 120/3/2 124/3/2
f 121/3/2 122/3/2 125/3/2
f 125/3/2 122/3/2 126/3/2
f 127/3/2 128/3/2 129/3/2
f 129/3/2 128/3/2 130/3/2
f 131/3/2 132/3/2 135/3/2
f 135/3/2 132/3/2 136/3/2
f 133/3/2 134/3/2 137/3/2
f 137/3/2 134/3/2 138/3/2
f 139/3/2 140/3/2 141/3/2
f 141/3/2 140/3/2 142/3/2
f 143/2/2 144/2/2 145/2/2
f 145/2/2 144/2/2 146/2/2
f 147/4/2 148/4/2 149/4/2
f 149/4/2 148/4/2 150/4/2
f 153/2/2 154/2/2 155/2/2
f 155/2/2 154/2/2 156/2/2
f 157/2/2 158/2/2 159/2/2
f 159/2/2 158/2/2 160/2/2
f 151/3/2 152/3/2 163/3/2
f 163/3/2 152/3/2 164/3/2
f 161/2/2 162/2/2 165/2/2
f 165/2/2 162/2/2 166/2/2
f 167/3/2 168/3/2 169/3/2
f 169/3/2 168/3/2 170/3/2
f 171/3/2 172/3/2 173/3/2
f 173/3/2 172/3/2 174/3/2
f 175/2/2 176/2/2 177/2/2
f 177/2/2 176/2/2 178/2/2
f 179/3/2 180/3/2 183/3/2
f 183/3/2 180/3/2 184/3/2
f 181/3/2 182/3/2 185/3/2
f 185/3/2 182/3/2 186/3/2
f 187/3/2 188/3/2 190/3/2
f 190/3/2 188/3/2 191/3/2
f 189/3/2 190/3/2 193/3/2
f 193/3/2 190/3/2 194/3/2
f 191/3/2 192/3/2 195/3/2
f 195/3/2 192/3/2 196/3/2
f 197/3/2 198/3/2 201/3/2
f 201/3/2 198/3/2 202/3/2
f 199/3/2 200/3/2 203/3/2
f 203/3/2 200/3/2 204/3/2
f 205/3/2 206/3/2 207/3/2
f 207/3/2 206/3/2 208/3/2
f 209/3/2 210/3/2 211/3/2
f 211/3/2 210/3/2 212/3/2
f 213/3/2 214/3/2 216/3/2
f 216/3/2 214/3/2 217/3/2
f 215/3/2 216/3/2 220/3/2
f 217/3/2 218/3/2 220/3/2
f 216/3/2 217/3/2 220/3/2
f 220/3/2 218/3/2 221/3/2
f 219/3/2 220/3/2 223/3/2
f 223/3/2 220/3/2 224/3/2
f 221/3/2 222/3/2 225/3/2
f 225/3/2 222/3/2 226/3/2
f 224/3/2 225/3/2 227/3/2
f 227/3/2 225/3/2 228/3/2
f 229/3/2 230/3/2 231/3/2
f 231/3/2 230/3/2 232/3/2
f 236/2/3 234/2/3 233/2/3
f 237/2/3 234/2/3 236/2/3
f 239/2/3 236/2/3 235/2/3
f 239/2/3 238/2/3 237/2/3
f 239/2/3 237/2/3 236/2/3
f 240/2/3 238/2/3 239/2/3
f 241/2/3 239/2/3 235/2/3
f 242/2/3 239/2/3 241/2/3
f 243/4/3 240/4/3 239/4/3
f 243/2/3 239/2/3 242/2/3
f 244/4/3 240/4/3 243/4/3
f 245/2/3 243/2/3 242/2/3
f 246/2/3 243/2/3 245/2/3
f 250/2/3 248/2/3 247/2/3
f 251/2/3 248/2/3 250/2/3
f 252/2/3 248/2/3 251/2/3
f 253/2/3 248/2/3 252/2/3
f 255/2/3 250/2/3 249/2/3
f 255/2/3 251/2/3 250/2/3
f 256/2/3 251/2/3 255/2/3
f 257/2/3 254/2/3 253/2/3
f 257/2/3 253/2/3 252/2/3
f 258/2/3 254/2/3 257/2/3
f 259/2/3 254/2/3 258/2/3
f 260/2/3 255/2/3 249/2/3
f 263/2/3 254/2/3 259/2/3
f 264/2/3 261/2/3 260/2/3
f 264/2/3 260/2/3 249/2/3
f 265/2/3 261/2/3 264/2/3
f 266/2/3 261/2/3 265/2/3
f 267/2/3 263/2/3 262/2/3
f 268/2/3 254/2/3 263/2/3
f 268/2/3 263/2/3 267/2/3
f 269/2/3 254/2/3 268/2/3
f 270/2/3 266/2/3 265/2/3
f 270/2/3 267/2/3 266/2/3
f 270/2/3 268/2/3 267/2/3
f 271/2/3 268/2/3 270/2/3
f 275/3/3 273/3/3 272/3/3
f 276/3/3 273/3/3 275/3/3
f 277/3/3 273/3/3 276/3/3
f 278/3/3 275/3/3 274/3/3
f 278/3/3 276/3/3 275/3/3
f 279/3/3 276/3/3 278/3/3
f 280/3/3 273/3/3 277/3/3
f 281/3/3 273/3/3 280/3/3
f 282/3/3 278/3/3 274/3/3
f 285/3/3 273/3/3 281/3/3
f 286/3/3 283/3/3 282/3/3
f 286/3/3 282/3/3 274/3/3
f 287/3/3 283/3/3 286/3/3
f 288/3/3 283/3/3 287/3/3
f 289/3/3 285/3/3 284/3/3
f 290/3/3 288/3/3 287/3/3
f 290/3/3 289/3/3 288/3/3
f 291/3/3 285/3/3 289/3/3
f 291/3/3 289/3/3 290/3/3
f 291/3/3 273/3/3 285/3/3
f 295/3/3 293/3/3 292/3/3
f 296/3/3 293/3/3 295/3/3
f 297/3/3 293/3/3 296/3/3
f 298/3/3 295/3/3 294/3/3
f 298/3/3 296/3/3 295/3/3
f 299/3/3 296/3/3 298/3/3
f 302/3/3 298/3/3 294/3/3
f 304/3/3 301/3/3 300/3/3
f 305/3/3 301/3/3 304/3/3
f 306/3/3 303/3/3 302/3/3
f 306/3/3 302/3/3 294/3/3
f 307/3/3 303/3/3 306/3/3
f 308/3/3 303/3/3 307/3/3
f 310/3/3 309/3/3 308/3/3
f 310/3/3 308/3/3 307/3/3
f 311/3/3 309/3/3 310/3/3
f 315/3/3 313/3/3 312/3/3
f 316/3/3 313/3/3 315/3/3
f 319/3/3 315/3/3 314/3/3
f 320/3/3 315/3/3 319/3/3
f 321/3/3 315/3/3 320/3/3
f 322/3/3 317/3/3 316/3/3
f 324/3/3 323/3/3 322/3/3
f 324/3/3 322/3/3 316/3/3
f 325/3/3 323/3/3 324/3/3
f 326/3/3 320/3/3 319/3/3
f 326/3/3 319/3/3 318/3/3
f 327/3/3 320/3/3 326/3/3
f 328/3/3 320/3/3 327/3/3
f 329/3/3 320/3/3 328/3/3
f 333/3/3 331/3/3 330/3/3
f 335/3/3 323/3/3 325/3/3
f 336/3/3 333/3/3 332/3/3
f 337/3/3 331/3/3 333/3/3
f 337/3/3 333/3/3 336/3/3
f 338/3/3 331/3/3 337/3/3
f 340/3/3 335/3/3 334/3/3
f 340/3/3 323/3/3 335/3/3
f 341/3/3 323/3/3 340/3/3
f 342/3/3 339/3/3 338/3/3
f 342/3/3 338/3/3 337/3/3
f 343/3/3 339/3/3 342/3/3
f 344/3/3 340/3/3 334/3/3
f 345/3/3 340/3/3 344/3/3
f 346/3/3 344/3/3 343/3/3
f 347/3/3 344/3/3 346/3/3
f 351/3/3 349/3/3 348/3/3
f 352/3/3 349/3/3 351/3/3
f 353/3/3 351/3/3 350/3/3
f 354/3/3 351/3/3 353/3/3
f 358/3/3 355/3/3 354/3/3
f 359/3/3 355/3/3 358/3/3
f 360/3/3 355/3/3 359/3/3
f 362/3/3 361/3/3 360/3/3
f 362/3/3 360/3/3 359/3/3
f 363/3/3 361/3/3 362/3/3
f 365/3/3 361/3/3 363/3/3
f 367/3/3 365/3/3 364/3/3
f 368/3/3 361/3/3 365/3/3
f 368/3/3 365/3/3 367/3/3
f 369/3/3 361/3/3 368/3/3
f 371/3/3 367/3/3 366/3/3
f 371/3/3 368/3/3 367/3/3
f 372/3/3 368/3/3 371/3/3
f 373/3/3 357/3/3 356/3/3
f 374/3/3 357/3/3 373/3/3
f 375/3/3 371/3/3 370/3/3
f 376/3/3 371/3/3 375/3/3
f 378/3/3 377/3/3 376/3/3
f 379/3/3 377/3/3 378/3/3
f 380/3/4 381/3/4 383/3/4
f 383/3/4 381/3/4 384/3/4
f 382/3/4 383/3/4 385/3/4
f 385/3/4 383/3/4 386/3/4
f 386/3/4 387/3/4 390/3/4
f 390/3/4 387/3/4 391/3/4
f 391/3/4 387/3/4 392/3/4
f 392/3/4 393/3/4 394/3/4
f 391/3/4 392/3/4 394/3/4
f 394/3/4 393/3/4 395/3/4
f 395/3/4 393/3/4 397/3/4
f 396/3/4 397/3/4 399/3/4
f 397/3/4 393/3/4 400/3/4
f 399/3/4 397/3/4 400/3/4
f 400/3/4 393/3/4 401/3/4
f 398/3/4 399/3/4 403/3/4
f 399/3/4 400/3/4 403/3/4
f 403/3/4 400/3/4 404/3/4
f 388/3/4 389/3/4 405/3/4
f 405/3/4 389/3/4 406/3/4
f 402/3/4 403/3/4 407/3/4
f 407/3/4 403/3/4 408/3/4
f 408/3/4 409/3/4 410/3/4
f 410/3/4 409/3/4 411/3/4
f 412/3/4 413/3/4 415/3/4
f 415/3/4 413/3/4 416/3/4
f 414/3/4 415/3/4 419/3/4
f 419/3/4 415/3/4 420/3/4
f 420/3/4 415/3/4 421/3/4
f 416/3/4 417/3/4 422/3/4
f 422/3/4 423/3/4 424/3/4
f 416/3/4 422/3/4 424/3/4
f 424/3/4 423/3/4 425/3/4
f 419/3/4 420/3/4 426/3/4
f 418/3/4 419/3/4 426/3/4
f 426/3/4 420/3/4 427/3/4
f 427/3/4 420/3/4 428/3/4
f 428/3/4 420/3/4 429/3/4
f 430/3/4 431/3/4 433/3/4
f 425/3/4 423/3/4 435/3/4
f 432/3/4 433/3/4 436/3/4
f 433/3/4 431/3/4 437/3/4
f 436/3/4 433/3/4 437/3/4
f 437/3/4 431/3/4 438/3/4
f 434/3/4 435/3/4 440/3/4
f 435/3/4 423/3/4 440/3/4
f 440/3/4 423/3/4 441/3/4
f 438/3/4 439/3/4 442/3/4
f 437/3/4 438/3/4 442/3/4
f 442/3/4 439/3/4 443/3/4
f 434/3/4 440/3/4 444/3/4
f 444/3/4 440/3/4 445/3/4
f 443/3/4 444/3/4 446/3/4
f 446/3/4 444/3/4 447/3/4
f 448/3/4 449/3/4 451/3/4
f 451/3/4 449/3/4 452/3/4
f 450/3/4 451/3/4 452/3/4
f 450/3/4 452/3/4 454/3/4
f 452/3/4 453/3/4 454/3/4
f 454/3/4 453/3/4 455/3/4
f 450/3/4 454/3/4 456/3/4
f 455/3/4 453/3/4 457/3/4
f 457/3/4 453/3/4 458/3/4
f 456/3/4 457/3/4 458/3/4
f 458/3/4 453/3/4 459/3/4
f 450/3/4 456/3/4 460/3/4
f 456/3/4 458/3/4 460/3/4
f 460/3/4 458/3/4 461/3/4
f 461/3/4 458/3/4 462/3/4
f 462/3/4 458/3/4 463/3/4
f 464/3/4 465/3/4 466/3/4
f 466/3/4 465/3/4 467/3/4
f 472/3/5 469/3/5 468/3/5
f 473/3/5 469/3/5 472/3/5
f 474/3/5 471/3/5 470/3/5
f 475/3/5 471/3/5 474/3/5
f 481/3/5 477/3/5 476/3/5
f 482/3/5 477/3/5 481/3/5
f 485/3/5 479/3/5 478/3/5
f 486/3/5 479/3/5 485/3/5
f 488/3/5 481/3/5 480/3/5
f 489/3/5 481/3/5 488/3/5
f 490/3/5 483/3/5 482/3/5
f 491/3/5 483/3/5 490/3/5
f 492/3/5 485/3/5 484/3/5
f 493/3/5 485/3/5 492/3/5
f 494/3/5 487/3/5 486/3/5
f 495/3/5 487/3/5 494/3/5
f 496/3/5 490/3/5 489/3/5
f 497/3/5 490/3/5 496/3/5
f 498/3/5 494/3/5 493/3/5
f 499/3/5 494/3/5 498/3/5
f 504/3/5 501/3/5 500/3/5
f 505/3/5 501/3/5 504/3/5
f 506/3/5 503/3/5 502/3/5
f 507/3/5 503/3/5 506/3/5
f 516/3/5 509/3/5 508/3/5
f 517/3/5 509/3/5 516/3/5
f 518/3/5 511/3/5 510/3/5
f 519/3/5 511/3/5 518/3/5
f 522/3/5 513/3/5 512/3/5
f 523/3/5 513/3/5 522/3/5
f 524/3/5 515/3/5 514/3/5
f 525/3/5 515/3/5 524/3/5
f 530/3/5 521/3/5 520/3/5
f 531/3/5 521/3/5 530/3/5
f 536/3/5 527/3/5 526/3/5
f 537/3/5 527/3/5 536/3/5
f 538/3/5 529/3/5 528/3/5
f 539/3/5 529/3/5 538/3/5
f 540/3/5 533/3/5 532/3/5
f 541/3/5 533/3/5 540/3/5
f 542/3/5 535/3/5 534/3/5
f 543/3/5 535/3/5 542/3/5
f 546/3/5 545/3/5 544/3/5
f 547/3/5 545/3/5 546/3/5
f 548/3/5 545/3/5 547/3/5
f 549/3/5 545/3/5 548/3/5
f 550/3/5 548/3/5 547/3/5
f 551/3/5 548/3/5 550/3/5
f 555/3/5 553/3/5 552/3/5
f 556/3/5 553/3/5 555/3/5
f 558/3/5 556/3/5 555/3/5
f 558/3/5 557/3/5 556/3/5
f 558/3/5 555/3/5 554/3/5
f 559/3/5 557/3/5 558/3/5
f 564/3/5 561/3/5 560/3/5
f 565/3/5 561/3/5 564/3/5
f 569/3/5 563/3/5 562/3/5
f 570/3/5 563/3/5 569/3/5
f 571/3/5 567/3/5 566/3/5
f 572/3/5 567/3/5 571/3/5
f 574/3/5 569/3/5 568/3/5
f 575/3/5 569/3/5 574/3/5
f 578/3/5 573/3/5 572/3/5
f 579/3/5 573/3/5 578/3/5
f 580/3/5 576/3/5 575/3/5
f 581/3/5 576/3/5 580/3/5
f 582/3/5 578/3/5 577/3/5
f 583/3/5 578/3/5 582/3/5
f 588/3/5 585/3/5 584/3/5
f 589/3/5 585/3/5 588/3/5
f 590/3/5 587/3/5 586/3/5
f 591/3/5 587/3/5 590/3/5
f 594/3/5 593/3/5 592/3/5
f 595/3/5 593/3/5 594/3/5
f 598/2/5 597/2/5 596/2/5
f 599/2/5 597/2/5 598/2/5
f 604/2/5 601/2/5 600/2/5
f 605/2/5 601/2/5 604/2/5
f 608/2/5 603/2/5 602/2/5
f 609/2/5 603/2/5 608/2/5
f 610/2/5 607/2/5 606/2/5
f 611/2/5 607/2/5 610/2/5
f 616/2/5 613/2/5 612/2/5
f 617/2/5 613/2/5 616/2/5
f 618/2/5 615/2/5 614/2/5
f 619/2/5 615/2/5 618/2/5
f 620/2/6 621/2/6 624/2/6
f 624/2/6 621/2/6 625/2/6
f 622/2/6 623/2/6 626/2/6
f 626/2/6 623/2/6 627/2/6
f 628/2/6 629/2/6 633/2/6
f 629/4/6 630/4/6 634/4/6
f 633/2/6 629/2/6 634/2/6
f 634/4/6 630/4/6 635/4/6
f 631/2/6 632/2/6 638/2/6
f 638/2/6 632/2/6 639/2/6
f 636/2/6 637/2/6 640/2/6
f 640/2/6 637/2/6 641/2/6
f 642/3/6 643/3/6 644/3/6
f 644/3/6 643/3/6 645/3/6
f 646/2/6 647/2/6 648/2/6
f 648/2/6 647/2/6 649/2/6
f 650/3/6 651/3/6 653/3/6
f 653/3/6 651/3/6 654/3/6
f 654/3/6 651/3/6 655/3/6
f 655/3/6 651/3/6 656/3/6
f 652/3/6 653/3/6 659/3/6
f 653/3/6 654/3/6 659/3/6
f 659/3/6 654/3/6 660/3/6
f 655/3/6 656/3/6 661/3/6
f 656/3/6 657/3/6 661/3/6
f 661/3/6 657/3/6 662/3/6
f 658/3/6 659/3/6 664/3/6
f 664/3/6 659/3/6 665/3/6
f 662/3/6 663/3/6 668/3/6
f 668/3/6 663/3/6 669/3/6
f 665/3/6 666/3/6 670/3/6
f 670/3/6 666/3/6 671/3/6
f 667/3/6 668/3/6 672/3/6
f 672/3/6 668/3/6 673/3/6
f 674/3/6 675/3/6 678/3/6
f 678/3/6 675/3/6 679/3/6
f 676/3/6 677/3/6 682/3/6
f 682/3/6 677/3/6 683/3/6
f 680/3/6 681/3/6 686/3/6
f 686/3/6 681/3/6 687/3/6
f 684/3/6 685/3/6 688/3/6
f 688/3/6 685/3/6 689/3/6
f 690/3/6 691/3/6 692/3/6
f 692/3/6 691/3/6 693/3/6
f 690/3/6 692/3/6 694/3/6
f 693/3/6 691/3/6 695/3/6
f 690/3/6 694/3/6 696/3/6
f 694/3/6 695/3/6 696/3/6
f 695/3/6 691/3/6 697/3/6
f 696/3/6 695/3/6 697/3/6
f 698/3/6 699/3/6 700/3/6
f 700/3/6 699/3/6 701/3/6
