# MagicaVoxel @ Ephtracy

# group
o 

# material
mtllib purble mongus.mtl
usemtl palette

# normals
vn -1 0 0
vn 1 0 0
vn 0 0 1
vn 0 0 -1
vn 0 -1 0
vn 0 1 0

# texcoords
vt 0.0917969 0.5
vt 0.541016 0.5
vt 0.705078 0.5
vt 0.919922 0.5
vt 0.958984 0.5

# verts
v -0.7 1 0.2
v -0.7 1 -0.2
v -0.7 2.5 0.2
v -0.7 2.5 -0.2
v -0.6 0.1 0.1
v -0.6 0.1 -0.1
v -0.6 0.8 0.2
v -0.6 0.8 0.1
v -0.6 0.8 -0.1
v -0.6 0.8 -0.2
v -0.6 1 0.3
v -0.6 1 0.2
v -0.6 1 -0.2
v -0.6 1 -0.3
v -0.6 2.5 0.3
v -0.6 2.5 0.2
v -0.6 2.5 -0.2
v -0.6 2.5 -0.3
v -0.6 2.6 0.2
v -0.6 2.6 -0.2
v -0.5 0 0.1
v -0.5 0 -0.1
v -0.5 0.1 0.2
v -0.5 0.1 0.1
v -0.5 0.1 -0.1
v -0.5 0.1 -0.2
v -0.5 0.8 0.2
v -0.5 0.8 0.1
v -0.5 0.8 -0.1
v -0.5 0.8 -0.2
v -0.5 0.9 0.3
v -0.5 0.9 0.2
v -0.5 0.9 -0.2
v -0.5 0.9 -0.3
v -0.5 1 0.3
v -0.5 1 0.2
v -0.5 1 -0.2
v -0.5 1 -0.3
v -0.5 1.1 0.4
v -0.5 1.1 0.3
v -0.5 2.5 0.4
v -0.5 2.5 0.3
v -0.5 2.6 0.2
v -0.5 2.6 -0.2
v -0.5 2.7 0.2
v -0.5 2.7 -0.2
v -0.4 1 0.4
v -0.4 1 0.3
v -0.4 1.1 0.4
v -0.4 1.1 0.3
v -0.4 2 0.5
v -0.4 2 0.4
v -0.4 2.3 0.5
v -0.4 2.3 0.4
v -0.4 2.5 0.3
v -0.4 2.5 0.2
v -0.4 2.5 -0.2
v -0.4 2.5 -0.3
v -0.4 2.6 0.3
v -0.4 2.6 0.2
v -0.4 2.6 -0.2
v -0.4 2.6 -0.3
v -0.3 1.2 -0.3
v -0.3 1.2 -0.5
v -0.3 1.9 0.5
v -0.3 1.9 0.4
v -0.3 2 0.5
v -0.3 2 0.4
v -0.3 2.1 0.6
v -0.3 2.1 0.5
v -0.3 2.2 0.6
v -0.3 2.2 0.5
v -0.3 2.3 0.5
v -0.3 2.3 0.4
v -0.3 2.3 -0.3
v -0.3 2.3 -0.5
v -0.3 2.4 0.5
v -0.3 2.4 0.4
v -0.3 2.7 0.1
v -0.3 2.7 -0.1
v -0.3 2.8 0.1
v -0.3 2.8 -0.1
v -0.2 2 0.6
v -0.2 2 0.5
v -0.2 2.1 0.6
v -0.2 2.1 0.5
v -0.2 2.2 0.6
v -0.2 2.2 0.5
v -0.2 2.3 0.6
v -0.2 2.3 0.5
v 0.1 0.7 0.1
v 0.1 0.7 -0.1
v 0.1 0.8 0.1
v 0.1 0.8 -0.1
v 0.2 0.1 0.1
v 0.2 0.1 -0.1
v 0.2 0.7 0.1
v 0.2 0.7 -0.1
v 0.2 0.8 0.2
v 0.2 0.8 0.1
v 0.2 0.8 -0.1
v 0.2 0.8 -0.2
v 0.2 0.9 0.2
v 0.2 0.9 0.1
v 0.2 0.9 -0.1
v 0.2 0.9 -0.2
v 0.3 0 0.1
v 0.3 0 -0.1
v 0.3 0.1 0.2
v 0.3 0.1 0.1
v 0.3 0.1 -0.1
v 0.3 0.1 -0.2
v 0.3 0.8 0.2
v 0.3 0.8 0.1
v 0.3 0.8 -0.1
v 0.3 0.8 -0.2
v -0.3 0 0.1
v -0.3 0 -0.1
v -0.3 0.1 0.2
v -0.3 0.1 0.1
v -0.3 0.1 -0.1
v -0.3 0.1 -0.2
v -0.3 0.8 0.2
v -0.3 0.8 0.1
v -0.3 0.8 -0.1
v -0.3 0.8 -0.2
v -0.2 0.1 0.1
v -0.2 0.1 -0.1
v -0.2 0.7 0.1
v -0.2 0.7 -0.1
v -0.2 0.8 0.2
v -0.2 0.8 0.1
v -0.2 0.8 -0.1
v -0.2 0.8 -0.2
v -0.2 0.9 0.2
v -0.2 0.9 0.1
v -0.2 0.9 -0.1
v -0.2 0.9 -0.2
v -0.1 0.7 0.1
v -0.1 0.7 -0.1
v -0.1 0.8 0.1
v -0.1 0.8 -0.1
v 0.2 2 0.6
v 0.2 2 0.5
v 0.2 2.1 0.6
v 0.2 2.1 0.5
v 0.2 2.2 0.6
v 0.2 2.2 0.5
v 0.2 2.3 0.6
v 0.2 2.3 0.5
v 0.3 1.2 -0.3
v 0.3 1.2 -0.5
v 0.3 1.9 0.5
v 0.3 1.9 0.4
v 0.3 2 0.5
v 0.3 2 0.4
v 0.3 2.1 0.6
v 0.3 2.1 0.5
v 0.3 2.2 0.6
v 0.3 2.2 0.5
v 0.3 2.3 0.5
v 0.3 2.3 0.4
v 0.3 2.3 -0.3
v 0.3 2.3 -0.5
v 0.3 2.4 0.5
v 0.3 2.4 0.4
v 0.3 2.7 0.1
v 0.3 2.7 -0.1
v 0.3 2.8 0.1
v 0.3 2.8 -0.1
v 0.4 1 0.4
v 0.4 1 0.3
v 0.4 1.1 0.4
v 0.4 1.1 0.3
v 0.4 2 0.5
v 0.4 2 0.4
v 0.4 2.3 0.5
v 0.4 2.3 0.4
v 0.4 2.5 0.3
v 0.4 2.5 0.2
v 0.4 2.5 -0.2
v 0.4 2.5 -0.3
v 0.4 2.6 0.3
v 0.4 2.6 0.2
v 0.4 2.6 -0.2
v 0.4 2.6 -0.3
v 0.5 0 0.1
v 0.5 0 -0.1
v 0.5 0.1 0.2
v 0.5 0.1 0.1
v 0.5 0.1 -0.1
v 0.5 0.1 -0.2
v 0.5 0.8 0.2
v 0.5 0.8 0.1
v 0.5 0.8 -0.1
v 0.5 0.8 -0.2
v 0.5 0.9 0.3
v 0.5 0.9 0.2
v 0.5 0.9 -0.2
v 0.5 0.9 -0.3
v 0.5 1 0.3
v 0.5 1 0.2
v 0.5 1 -0.2
v 0.5 1 -0.3
v 0.5 1.1 0.4
v 0.5 1.1 0.3
v 0.5 2.5 0.4
v 0.5 2.5 0.3
v 0.5 2.6 0.2
v 0.5 2.6 -0.2
v 0.5 2.7 0.2
v 0.5 2.7 -0.2
v 0.6 0.1 0.1
v 0.6 0.1 -0.1
v 0.6 0.8 0.2
v 0.6 0.8 0.1
v 0.6 0.8 -0.1
v 0.6 0.8 -0.2
v 0.6 1 0.3
v 0.6 1 0.2
v 0.6 1 -0.2
v 0.6 1 -0.3
v 0.6 2.5 0.3
v 0.6 2.5 0.2
v 0.6 2.5 -0.2
v 0.6 2.5 -0.3
v 0.6 2.6 0.2
v 0.6 2.6 -0.2
v 0.7 1 0.2
v 0.7 1 -0.2
v 0.7 2.5 0.2
v 0.7 2.5 -0.2
v -0.3 2.1 0.6
v -0.3 2.2 0.6
v -0.2 2 0.6
v -0.2 2.1 0.6
v -0.2 2.2 0.6
v -0.2 2.3 0.6
v 0 2.2 0.6
v 0 2.3 0.6
v 0.2 2 0.6
v 0.2 2.1 0.6
v 0.2 2.2 0.6
v 0.2 2.3 0.6
v 0.3 2.1 0.6
v 0.3 2.2 0.6
v -0.4 2 0.5
v -0.4 2.3 0.5
v -0.3 1.9 0.5
v -0.3 2 0.5
v -0.3 2.1 0.5
v -0.3 2.2 0.5
v -0.3 2.3 0.5
v -0.3 2.4 0.5
v -0.2 2 0.5
v -0.2 2.1 0.5
v -0.2 2.2 0.5
v -0.2 2.3 0.5
v 0 2.3 0.5
v 0.2 2 0.5
v 0.2 2.1 0.5
v 0.2 2.2 0.5
v 0.2 2.3 0.5
v 0.3 1.9 0.5
v 0.3 2 0.5
v 0.3 2.1 0.5
v 0.3 2.2 0.5
v 0.3 2.3 0.5
v 0.3 2.4 0.5
v 0.4 2 0.5
v 0.4 2.3 0.5
v -0.5 1.1 0.4
v -0.5 2.5 0.4
v -0.4 1 0.4
v -0.4 1.1 0.4
v -0.4 2 0.4
v -0.4 2.3 0.4
v -0.3 1.9 0.4
v -0.3 2 0.4
v -0.3 2.3 0.4
v -0.3 2.4 0.4
v 0.3 1.9 0.4
v 0.3 2 0.4
v 0.3 2.3 0.4
v 0.3 2.4 0.4
v 0.4 1 0.4
v 0.4 1.1 0.4
v 0.4 2 0.4
v 0.4 2.3 0.4
v 0.5 1.1 0.4
v 0.5 2.5 0.4
v -0.6 1 0.3
v -0.6 2.5 0.3
v -0.5 0.9 0.3
v -0.5 1 0.3
v -0.5 1.1 0.3
v -0.5 2.5 0.3
v -0.4 1 0.3
v -0.4 1.1 0.3
v -0.4 2.5 0.3
v -0.4 2.6 0.3
v 0.4 1 0.3
v 0.4 1.1 0.3
v 0.4 2.5 0.3
v 0.4 2.6 0.3
v 0.5 0.9 0.3
v 0.5 1 0.3
v 0.5 1.1 0.3
v 0.5 2.5 0.3
v 0.6 1 0.3
v 0.6 2.5 0.3
v -0.7 1 0.2
v -0.7 2.5 0.2
v -0.6 0.8 0.2
v -0.6 1 0.2
v -0.6 2.5 0.2
v -0.6 2.6 0.2
v -0.5 0.1 0.2
v -0.5 0.8 0.2
v -0.5 0.9 0.2
v -0.5 1 0.2
v -0.5 2.6 0.2
v -0.5 2.7 0.2
v -0.4 2.5 0.2
v -0.4 2.6 0.2
v -0.3 0.1 0.2
v -0.3 0.8 0.2
v -0.2 0.8 0.2
v -0.2 0.9 0.2
v 0.2 0.8 0.2
v 0.2 0.9 0.2
v 0.3 0.1 0.2
v 0.3 0.8 0.2
v 0.4 2.5 0.2
v 0.4 2.6 0.2
v 0.5 0.1 0.2
v 0.5 0.8 0.2
v 0.5 0.9 0.2
v 0.5 1 0.2
v 0.5 2.6 0.2
v 0.5 2.7 0.2
v 0.6 0.8 0.2
v 0.6 1 0.2
v 0.6 2.5 0.2
v 0.6 2.6 0.2
v 0.7 1 0.2
v 0.7 2.5 0.2
v -0.6 0.1 0.1
v -0.6 0.8 0.1
v -0.5 0 0.1
v -0.5 0.1 0.1
v -0.5 0.8 0.1
v -0.3 0 0.1
v -0.3 0.1 0.1
v -0.3 0.8 0.1
v -0.3 2.7 0.1
v -0.3 2.8 0.1
v -0.2 0.1 0.1
v -0.2 0.7 0.1
v -0.2 0.8 0.1
v -0.2 0.9 0.1
v -0.1 0.7 0.1
v -0.1 0.8 0.1
v 0.1 0.7 0.1
v 0.1 0.8 0.1
v 0.2 0.1 0.1
v 0.2 0.7 0.1
v 0.2 0.8 0.1
v 0.2 0.9 0.1
v 0.3 0 0.1
v 0.3 0.1 0.1
v 0.3 0.8 0.1
v 0.3 2.7 0.1
v 0.3 2.8 0.1
v 0.5 0 0.1
v 0.5 0.1 0.1
v 0.5 0.8 0.1
v 0.6 0.1 0.1
v 0.6 0.8 0.1
v -0.6 0.1 -0.1
v -0.6 0.8 -0.1
v -0.5 0 -0.1
v -0.5 0.1 -0.1
v -0.5 0.8 -0.1
v -0.3 0 -0.1
v -0.3 0.1 -0.1
v -0.3 0.8 -0.1
v -0.3 2.7 -0.1
v -0.3 2.8 -0.1
v -0.2 0.1 -0.1
v -0.2 0.7 -0.1
v -0.2 0.8 -0.1
v -0.2 0.9 -0.1
v -0.1 0.7 -0.1
v -0.1 0.8 -0.1
v 0.1 0.7 -0.1
v 0.1 0.8 -0.1
v 0.2 0.1 -0.1
v 0.2 0.7 -0.1
v 0.2 0.8 -0.1
v 0.2 0.9 -0.1
v 0.3 0 -0.1
v 0.3 0.1 -0.1
v 0.3 0.8 -0.1
v 0.3 2.7 -0.1
v 0.3 2.8 -0.1
v 0.5 0 -0.1
v 0.5 0.1 -0.1
v 0.5 0.8 -0.1
v 0.6 0.1 -0.1
v 0.6 0.8 -0.1
v -0.7 1 -0.2
v -0.7 2.5 -0.2
v -0.6 0.8 -0.2
v -0.6 1 -0.2
v -0.6 2.5 -0.2
v -0.6 2.6 -0.2
v -0.5 0.1 -0.2
v -0.5 0.8 -0.2
v -0.5 0.9 -0.2
v -0.5 1 -0.2
v -0.5 2.6 -0.2
v -0.5 2.7 -0.2
v -0.4 2.5 -0.2
v -0.4 2.6 -0.2
v -0.3 0.1 -0.2
v -0.3 0.8 -0.2
v -0.2 0.8 -0.2
v -0.2 0.9 -0.2
v 0.2 0.8 -0.2
v 0.2 0.9 -0.2
v 0.3 0.1 -0.2
v 0.3 0.8 -0.2
v 0.4 2.5 -0.2
v 0.4 2.6 -0.2
v 0.5 0.1 -0.2
v 0.5 0.8 -0.2
v 0.5 0.9 -0.2
v 0.5 1 -0.2
v 0.5 2.6 -0.2
v 0.5 2.7 -0.2
v 0.6 0.8 -0.2
v 0.6 1 -0.2
v 0.6 2.5 -0.2
v 0.6 2.6 -0.2
v 0.7 1 -0.2
v 0.7 2.5 -0.2
v -0.6 1 -0.3
v -0.6 2.5 -0.3
v -0.5 0.9 -0.3
v -0.5 1 -0.3
v -0.4 2.5 -0.3
v -0.4 2.6 -0.3
v -0.3 1.2 -0.3
v -0.3 2.3 -0.3
v 0.3 1.2 -0.3
v 0.3 2.3 -0.3
v 0.4 2.5 -0.3
v 0.4 2.6 -0.3
v 0.5 0.9 -0.3
v 0.5 1 -0.3
v 0.6 1 -0.3
v 0.6 2.5 -0.3
v -0.3 1.2 -0.5
v -0.3 2.3 -0.5
v 0.3 1.2 -0.5
v 0.3 2.3 -0.5
v -0.5 0 0.1
v -0.3 0 0.1
v 0.3 0 0.1
v 0.5 0 0.1
v -0.5 0 -0.1
v -0.3 0 -0.1
v 0.3 0 -0.1
v 0.5 0 -0.1
v -0.5 0.1 0.2
v -0.3 0.1 0.2
v 0.3 0.1 0.2
v 0.5 0.1 0.2
v -0.6 0.1 0.1
v -0.5 0.1 0.1
v -0.3 0.1 0.1
v -0.2 0.1 0.1
v 0.2 0.1 0.1
v 0.3 0.1 0.1
v 0.5 0.1 0.1
v 0.6 0.1 0.1
v -0.6 0.1 -0.1
v -0.5 0.1 -0.1
v -0.3 0.1 -0.1
v -0.2 0.1 -0.1
v 0.2 0.1 -0.1
v 0.3 0.1 -0.1
v 0.5 0.1 -0.1
v 0.6 0.1 -0.1
v -0.5 0.1 -0.2
v -0.3 0.1 -0.2
v 0.3 0.1 -0.2
v 0.5 0.1 -0.2
v -0.2 0.7 0.1
v -0.1 0.7 0.1
v 0.1 0.7 0.1
v 0.2 0.7 0.1
v -0.2 0.7 -0.1
v -0.1 0.7 -0.1
v 0.1 0.7 -0.1
v 0.2 0.7 -0.1
v -0.6 0.8 0.2
v -0.5 0.8 0.2
v -0.3 0.8 0.2
v -0.2 0.8 0.2
v 0.2 0.8 0.2
v 0.3 0.8 0.2
v 0.5 0.8 0.2
v 0.6 0.8 0.2
v -0.6 0.8 0.1
v -0.5 0.8 0.1
v -0.3 0.8 0.1
v -0.2 0.8 0.1
v -0.1 0.8 0.1
v 0.1 0.8 0.1
v 0.2 0.8 0.1
v 0.3 0.8 0.1
v 0.5 0.8 0.1
v 0.6 0.8 0.1
v -0.6 0.8 -0.1
v -0.5 0.8 -0.1
v -0.3 0.8 -0.1
v -0.2 0.8 -0.1
v -0.1 0.8 -0.1
v 0.1 0.8 -0.1
v 0.2 0.8 -0.1
v 0.3 0.8 -0.1
v 0.5 0.8 -0.1
v 0.6 0.8 -0.1
v -0.6 0.8 -0.2
v -0.5 0.8 -0.2
v -0.3 0.8 -0.2
v -0.2 0.8 -0.2
v 0.2 0.8 -0.2
v 0.3 0.8 -0.2
v 0.5 0.8 -0.2
v 0.6 0.8 -0.2
v -0.5 0.9 0.3
v 0.5 0.9 0.3
v -0.5 0.9 0.2
v -0.2 0.9 0.2
v 0.2 0.9 0.2
v 0.5 0.9 0.2
v -0.2 0.9 0.1
v 0.2 0.9 0.1
v -0.2 0.9 -0.1
v 0.2 0.9 -0.1
v -0.5 0.9 -0.2
v -0.2 0.9 -0.2
v 0.2 0.9 -0.2
v 0.5 0.9 -0.2
v -0.5 0.9 -0.3
v 0.5 0.9 -0.3
v -0.4 1 0.4
v 0.4 1 0.4
v -0.6 1 0.3
v -0.5 1 0.3
v -0.4 1 0.3
v 0.4 1 0.3
v 0.5 1 0.3
v 0.6 1 0.3
v -0.7 1 0.2
v -0.6 1 0.2
v -0.5 1 0.2
v 0.5 1 0.2
v 0.6 1 0.2
v 0.7 1 0.2
v -0.7 1 -0.2
v -0.6 1 -0.2
v -0.5 1 -0.2
v 0.5 1 -0.2
v 0.6 1 -0.2
v 0.7 1 -0.2
v -0.6 1 -0.3
v -0.5 1 -0.3
v 0.5 1 -0.3
v 0.6 1 -0.3
v -0.5 1.1 0.4
v -0.4 1.1 0.4
v 0.4 1.1 0.4
v 0.5 1.1 0.4
v -0.5 1.1 0.3
v -0.4 1.1 0.3
v 0.4 1.1 0.3
v 0.5 1.1 0.3
v -0.3 1.2 -0.3
v 0.3 1.2 -0.3
v -0.3 1.2 -0.5
v 0.3 1.2 -0.5
v -0.3 1.9 0.5
v 0.3 1.9 0.5
v -0.3 1.9 0.4
v 0.3 1.9 0.4
v -0.2 2 0.6
v 0.2 2 0.6
v -0.4 2 0.5
v -0.3 2 0.5
v -0.2 2 0.5
v 0.2 2 0.5
v 0.3 2 0.5
v 0.4 2 0.5
v -0.4 2 0.4
v -0.3 2 0.4
v 0.3 2 0.4
v 0.4 2 0.4
v -0.3 2.1 0.6
v -0.2 2.1 0.6
v 0.2 2.1 0.6
v 0.3 2.1 0.6
v -0.3 2.1 0.5
v -0.2 2.1 0.5
v 0.2 2.1 0.5
v 0.3 2.1 0.5
v -0.3 2.2 0.6
v -0.2 2.2 0.6
v 0.2 2.2 0.6
v 0.3 2.2 0.6
v -0.3 2.2 0.5
v -0.2 2.2 0.5
v 0.2 2.2 0.5
v 0.3 2.2 0.5
v -0.2 2.3 0.6
v 0 2.3 0.6
v 0.2 2.3 0.6
v -0.4 2.3 0.5
v -0.3 2.3 0.5
v -0.2 2.3 0.5
v 0 2.3 0.5
v 0.2 2.3 0.5
v 0.3 2.3 0.5
v 0.4 2.3 0.5
v -0.4 2.3 0.4
v -0.3 2.3 0.4
v 0.3 2.3 0.4
v 0.4 2.3 0.4
v -0.3 2.3 -0.3
v 0.3 2.3 -0.3
v -0.3 2.3 -0.5
v 0.3 2.3 -0.5
v -0.3 2.4 0.5
v 0.3 2.4 0.5
v -0.3 2.4 0.4
v 0.3 2.4 0.4
v -0.5 2.5 0.4
v 0.5 2.5 0.4
v -0.6 2.5 0.3
v -0.5 2.5 0.3
v -0.4 2.5 0.3
v 0.4 2.5 0.3
v 0.5 2.5 0.3
v 0.6 2.5 0.3
v -0.7 2.5 0.2
v -0.6 2.5 0.2
v -0.4 2.5 0.2
v 0.4 2.5 0.2
v 0.6 2.5 0.2
v 0.7 2.5 0.2
v -0.7 2.5 -0.2
v -0.6 2.5 -0.2
v -0.4 2.5 -0.2
v 0.4 2.5 -0.2
v 0.6 2.5 -0.2
v 0.7 2.5 -0.2
v -0.6 2.5 -0.3
v -0.4 2.5 -0.3
v 0.4 2.5 -0.3
v 0.6 2.5 -0.3
v -0.4 2.6 0.3
v 0.4 2.6 0.3
v -0.6 2.6 0.2
v -0.5 2.6 0.2
v -0.4 2.6 0.2
v 0.4 2.6 0.2
v 0.5 2.6 0.2
v 0.6 2.6 0.2
v -0.6 2.6 -0.2
v -0.5 2.6 -0.2
v -0.4 2.6 -0.2
v 0.4 2.6 -0.2
v 0.5 2.6 -0.2
v 0.6 2.6 -0.2
v -0.4 2.6 -0.3
v 0.4 2.6 -0.3
v -0.5 2.7 0.2
v 0.5 2.7 0.2
v -0.3 2.7 0.1
v 0.3 2.7 0.1
v -0.3 2.7 -0.1
v 0.3 2.7 -0.1
v -0.5 2.7 -0.2
v 0.5 2.7 -0.2
v -0.3 2.8 0.1
v 0.3 2.8 0.1
v -0.3 2.8 -0.1
v 0.3 2.8 -0.1

# faces
f 3/2/1 2/2/1 1/2/1
f 4/2/1 2/2/1 3/2/1
f 8/2/1 6/2/1 5/2/1
f 9/2/1 6/2/1 8/2/1
f 12/2/1 8/2/1 7/2/1
f 12/2/1 10/2/1 9/2/1
f 12/2/1 9/2/1 8/2/1
f 13/2/1 10/2/1 12/2/1
f 15/2/1 12/2/1 11/2/1
f 16/2/1 12/2/1 15/2/1
f 17/2/1 14/2/1 13/2/1
f 18/2/1 14/2/1 17/2/1
f 19/2/1 17/2/1 16/2/1
f 20/2/1 17/2/1 19/2/1
f 24/2/1 22/2/1 21/2/1
f 25/2/1 22/2/1 24/2/1
f 27/2/1 24/2/1 23/2/1
f 28/2/1 24/2/1 27/2/1
f 29/2/1 26/2/1 25/2/1
f 30/2/1 26/2/1 29/2/1
f 35/2/1 32/2/1 31/2/1
f 36/2/1 32/2/1 35/2/1
f 37/2/1 34/2/1 33/2/1
f 38/2/1 34/2/1 37/2/1
f 41/2/1 40/2/1 39/2/1
f 42/2/1 40/2/1 41/2/1
f 45/2/1 44/2/1 43/2/1
f 46/2/1 44/2/1 45/2/1
f 49/2/1 48/2/1 47/2/1
f 50/2/1 48/2/1 49/2/1
f 53/3/1 52/3/1 51/3/1
f 54/3/1 52/3/1 53/3/1
f 59/2/1 56/2/1 55/2/1
f 60/2/1 56/2/1 59/2/1
f 61/2/1 58/2/1 57/2/1
f 62/2/1 58/2/1 61/2/1
f 67/3/1 66/3/1 65/3/1
f 68/3/1 66/3/1 67/3/1
f 71/3/1 70/3/1 69/3/1
f 72/3/1 70/3/1 71/3/1
f 75/2/1 64/2/1 63/2/1
f 76/2/1 64/2/1 75/2/1
f 77/3/1 74/3/1 73/3/1
f 78/3/1 74/3/1 77/3/1
f 81/2/1 80/2/1 79/2/1
f 82/2/1 80/2/1 81/2/1
f 85/3/1 84/3/1 83/3/1
f 86/3/1 84/3/1 85/3/1
f 89/3/1 88/3/1 87/3/1
f 90/3/1 88/3/1 89/3/1
f 93/2/1 92/2/1 91/2/1
f 94/2/1 92/2/1 93/2/1
f 97/2/1 96/2/1 95/2/1
f 98/2/1 96/2/1 97/2/1
f 103/2/1 100/2/1 99/2/1
f 104/2/1 100/2/1 103/2/1
f 105/2/1 102/2/1 101/2/1
f 106/2/1 102/2/1 105/2/1
f 110/2/1 108/2/1 107/2/1
f 111/2/1 108/2/1 110/2/1
f 113/2/1 110/2/1 109/2/1
f 114/2/1 110/2/1 113/2/1
f 115/2/1 112/2/1 111/2/1
f 116/2/1 112/2/1 115/2/1
f 117/2/2 118/2/2 120/2/2
f 120/2/2 118/2/2 121/2/2
f 119/2/2 120/2/2 123/2/2
f 123/2/2 120/2/2 124/2/2
f 121/2/2 122/2/2 125/2/2
f 125/2/2 122/2/2 126/2/2
f 127/2/2 128/2/2 129/2/2
f 129/2/2 128/2/2 130/2/2
f 131/2/2 132/2/2 135/2/2
f 135/2/2 132/2/2 136/2/2
f 133/2/2 134/2/2 137/2/2
f 137/2/2 134/2/2 138/2/2
f 139/2/2 140/2/2 141/2/2
f 141/2/2 140/2/2 142/2/2
f 143/3/2 144/3/2 145/3/2
f 145/3/2 144/3/2 146/3/2
f 147/5/2 148/5/2 149/5/2
f 149/5/2 148/5/2 150/5/2
f 153/3/2 154/3/2 155/3/2
f 155/3/2 154/3/2 156/3/2
f 157/3/2 158/3/2 159/3/2
f 159/3/2 158/3/2 160/3/2
f 151/2/2 152/2/2 163/2/2
f 163/2/2 152/2/2 164/2/2
f 161/3/2 162/3/2 165/3/2
f 165/3/2 162/3/2 166/3/2
f 167/2/2 168/2/2 169/2/2
f 169/2/2 168/2/2 170/2/2
f 171/2/2 172/2/2 173/2/2
f 173/2/2 172/2/2 174/2/2
f 175/3/2 176/3/2 177/3/2
f 177/3/2 176/3/2 178/3/2
f 179/2/2 180/2/2 183/2/2
f 183/2/2 180/2/2 184/2/2
f 181/2/2 182/2/2 185/2/2
f 185/2/2 182/2/2 186/2/2
f 187/2/2 188/2/2 190/2/2
f 190/2/2 188/2/2 191/2/2
f 189/2/2 190/2/2 193/2/2
f 193/2/2 190/2/2 194/2/2
f 191/2/2 192/2/2 195/2/2
f 195/2/2 192/2/2 196/2/2
f 197/2/2 198/2/2 201/2/2
f 201/2/2 198/2/2 202/2/2
f 199/2/2 200/2/2 203/2/2
f 203/2/2 200/2/2 204/2/2
f 205/2/2 206/2/2 207/2/2
f 207/2/2 206/2/2 208/2/2
f 209/2/2 210/2/2 211/2/2
f 211/2/2 210/2/2 212/2/2
f 213/2/2 214/2/2 216/2/2
f 216/2/2 214/2/2 217/2/2
f 215/2/2 216/2/2 220/2/2
f 217/2/2 218/2/2 220/2/2
f 216/2/2 217/2/2 220/2/2
f 220/2/2 218/2/2 221/2/2
f 219/2/2 220/2/2 223/2/2
f 223/2/2 220/2/2 224/2/2
f 221/2/2 222/2/2 225/2/2
f 225/2/2 222/2/2 226/2/2
f 224/2/2 225/2/2 227/2/2
f 227/2/2 225/2/2 228/2/2
f 229/2/2 230/2/2 231/2/2
f 231/2/2 230/2/2 232/2/2
f 236/3/3 234/3/3 233/3/3
f 237/3/3 234/3/3 236/3/3
f 239/3/3 236/3/3 235/3/3
f 239/3/3 238/3/3 237/3/3
f 239/3/3 237/3/3 236/3/3
f 240/3/3 238/3/3 239/3/3
f 241/3/3 239/3/3 235/3/3
f 242/3/3 239/3/3 241/3/3
f 243/5/3 240/5/3 239/5/3
f 243/3/3 239/3/3 242/3/3
f 244/5/3 240/5/3 243/5/3
f 245/3/3 243/3/3 242/3/3
f 246/3/3 243/3/3 245/3/3
f 250/3/3 248/3/3 247/3/3
f 251/3/3 248/3/3 250/3/3
f 252/3/3 248/3/3 251/3/3
f 253/3/3 248/3/3 252/3/3
f 255/3/3 250/3/3 249/3/3
f 255/3/3 251/3/3 250/3/3
f 256/3/3 251/3/3 255/3/3
f 257/3/3 254/3/3 253/3/3
f 257/3/3 253/3/3 252/3/3
f 258/3/3 254/3/3 257/3/3
f 259/3/3 254/3/3 258/3/3
f 260/3/3 255/3/3 249/3/3
f 263/3/3 254/3/3 259/3/3
f 264/3/3 261/3/3 260/3/3
f 264/3/3 260/3/3 249/3/3
f 265/3/3 261/3/3 264/3/3
f 266/3/3 261/3/3 265/3/3
f 267/3/3 263/3/3 262/3/3
f 268/3/3 254/3/3 263/3/3
f 268/3/3 263/3/3 267/3/3
f 269/3/3 254/3/3 268/3/3
f 270/3/3 266/3/3 265/3/3
f 270/3/3 267/3/3 266/3/3
f 270/3/3 268/3/3 267/3/3
f 271/3/3 268/3/3 270/3/3
f 275/2/3 273/2/3 272/2/3
f 276/2/3 273/2/3 275/2/3
f 277/2/3 273/2/3 276/2/3
f 278/2/3 275/2/3 274/2/3
f 278/2/3 276/2/3 275/2/3
f 279/2/3 276/2/3 278/2/3
f 280/2/3 273/2/3 277/2/3
f 281/2/3 273/2/3 280/2/3
f 282/2/3 278/2/3 274/2/3
f 285/2/3 273/2/3 281/2/3
f 286/2/3 283/2/3 282/2/3
f 286/2/3 282/2/3 274/2/3
f 287/2/3 283/2/3 286/2/3
f 288/2/3 283/2/3 287/2/3
f 289/2/3 285/2/3 284/2/3
f 290/2/3 288/2/3 287/2/3
f 290/2/3 289/2/3 288/2/3
f 291/2/3 285/2/3 289/2/3
f 291/2/3 289/2/3 290/2/3
f 291/2/3 273/2/3 285/2/3
f 295/2/3 293/2/3 292/2/3
f 296/2/3 293/2/3 295/2/3
f 297/2/3 293/2/3 296/2/3
f 298/2/3 295/2/3 294/2/3
f 298/2/3 296/2/3 295/2/3
f 299/2/3 296/2/3 298/2/3
f 302/2/3 298/2/3 294/2/3
f 304/2/3 301/2/3 300/2/3
f 305/2/3 301/2/3 304/2/3
f 306/2/3 303/2/3 302/2/3
f 306/2/3 302/2/3 294/2/3
f 307/2/3 303/2/3 306/2/3
f 308/2/3 303/2/3 307/2/3
f 310/2/3 309/2/3 308/2/3
f 310/2/3 308/2/3 307/2/3
f 311/2/3 309/2/3 310/2/3
f 315/2/3 313/2/3 312/2/3
f 316/2/3 313/2/3 315/2/3
f 319/2/3 315/2/3 314/2/3
f 320/2/3 315/2/3 319/2/3
f 321/2/3 315/2/3 320/2/3
f 322/2/3 317/2/3 316/2/3
f 324/2/3 323/2/3 322/2/3
f 324/2/3 322/2/3 316/2/3
f 325/2/3 323/2/3 324/2/3
f 326/2/3 320/2/3 319/2/3
f 326/2/3 319/2/3 318/2/3
f 327/2/3 320/2/3 326/2/3
f 328/2/3 320/2/3 327/2/3
f 329/2/3 320/2/3 328/2/3
f 333/2/3 331/2/3 330/2/3
f 335/2/3 323/2/3 325/2/3
f 336/2/3 333/2/3 332/2/3
f 337/2/3 331/2/3 333/2/3
f 337/2/3 333/2/3 336/2/3
f 338/2/3 331/2/3 337/2/3
f 340/2/3 335/2/3 334/2/3
f 340/2/3 323/2/3 335/2/3
f 341/2/3 323/2/3 340/2/3
f 342/2/3 339/2/3 338/2/3
f 342/2/3 338/2/3 337/2/3
f 343/2/3 339/2/3 342/2/3
f 344/2/3 340/2/3 334/2/3
f 345/2/3 340/2/3 344/2/3
f 346/2/3 344/2/3 343/2/3
f 347/2/3 344/2/3 346/2/3
f 351/2/3 349/2/3 348/2/3
f 352/2/3 349/2/3 351/2/3
f 353/2/3 351/2/3 350/2/3
f 354/2/3 351/2/3 353/2/3
f 358/2/3 355/2/3 354/2/3
f 359/2/3 355/2/3 358/2/3
f 360/2/3 355/2/3 359/2/3
f 362/2/3 361/2/3 360/2/3
f 362/2/3 360/2/3 359/2/3
f 363/2/3 361/2/3 362/2/3
f 365/2/3 361/2/3 363/2/3
f 367/2/3 365/2/3 364/2/3
f 368/2/3 361/2/3 365/2/3
f 368/2/3 365/2/3 367/2/3
f 369/2/3 361/2/3 368/2/3
f 371/2/3 367/2/3 366/2/3
f 371/2/3 368/2/3 367/2/3
f 372/2/3 368/2/3 371/2/3
f 373/2/3 357/2/3 356/2/3
f 374/2/3 357/2/3 373/2/3
f 375/2/3 371/2/3 370/2/3
f 376/2/3 371/2/3 375/2/3
f 378/2/3 377/2/3 376/2/3
f 379/2/3 377/2/3 378/2/3
f 380/2/4 381/2/4 383/2/4
f 383/2/4 381/2/4 384/2/4
f 382/2/4 383/2/4 385/2/4
f 385/2/4 383/2/4 386/2/4
f 386/2/4 387/2/4 390/2/4
f 390/2/4 387/2/4 391/2/4
f 391/2/4 387/2/4 392/2/4
f 392/2/4 393/2/4 394/2/4
f 391/2/4 392/2/4 394/2/4
f 394/2/4 393/2/4 395/2/4
f 395/2/4 393/2/4 397/2/4
f 396/2/4 397/2/4 399/2/4
f 397/2/4 393/2/4 400/2/4
f 399/2/4 397/2/4 400/2/4
f 400/2/4 393/2/4 401/2/4
f 398/2/4 399/2/4 403/2/4
f 399/2/4 400/2/4 403/2/4
f 403/2/4 400/2/4 404/2/4
f 388/2/4 389/2/4 405/2/4
f 405/2/4 389/2/4 406/2/4
f 402/2/4 403/2/4 407/2/4
f 407/2/4 403/2/4 408/2/4
f 408/2/4 409/2/4 410/2/4
f 410/2/4 409/2/4 411/2/4
f 412/2/4 413/2/4 415/2/4
f 415/2/4 413/2/4 416/2/4
f 414/2/4 415/2/4 419/2/4
f 419/2/4 415/2/4 420/2/4
f 420/2/4 415/2/4 421/2/4
f 416/2/4 417/2/4 422/2/4
f 422/2/4 423/2/4 424/2/4
f 416/2/4 422/2/4 424/2/4
f 424/2/4 423/2/4 425/2/4
f 419/2/4 420/2/4 426/2/4
f 418/2/4 419/2/4 426/2/4
f 426/2/4 420/2/4 427/2/4
f 427/2/4 420/2/4 428/2/4
f 428/2/4 420/2/4 429/2/4
f 430/2/4 431/2/4 433/2/4
f 425/2/4 423/2/4 435/2/4
f 432/2/4 433/2/4 436/2/4
f 433/2/4 431/2/4 437/2/4
f 436/2/4 433/2/4 437/2/4
f 437/2/4 431/2/4 438/2/4
f 434/2/4 435/2/4 440/2/4
f 435/2/4 423/2/4 440/2/4
f 440/2/4 423/2/4 441/2/4
f 438/2/4 439/2/4 442/2/4
f 437/2/4 438/2/4 442/2/4
f 442/2/4 439/2/4 443/2/4
f 434/2/4 440/2/4 444/2/4
f 444/2/4 440/2/4 445/2/4
f 443/2/4 444/2/4 446/2/4
f 446/2/4 444/2/4 447/2/4
f 448/2/4 449/2/4 451/2/4
f 451/2/4 449/2/4 452/2/4
f 450/2/4 451/2/4 452/2/4
f 450/2/4 452/2/4 454/2/4
f 452/2/4 453/2/4 454/2/4
f 454/2/4 453/2/4 455/2/4
f 450/2/4 454/2/4 456/2/4
f 455/2/4 453/2/4 457/2/4
f 457/2/4 453/2/4 458/2/4
f 456/2/4 457/2/4 458/2/4
f 458/2/4 453/2/4 459/2/4
f 450/2/4 456/2/4 460/2/4
f 456/2/4 458/2/4 460/2/4
f 460/2/4 458/2/4 461/2/4
f 461/2/4 458/2/4 462/2/4
f 462/2/4 458/2/4 463/2/4
f 464/2/4 465/2/4 466/2/4
f 466/2/4 465/2/4 467/2/4
f 472/2/5 469/2/5 468/2/5
f 473/2/5 469/2/5 472/2/5
f 474/2/5 471/2/5 470/2/5
f 475/2/5 471/2/5 474/2/5
f 481/2/5 477/2/5 476/2/5
f 482/2/5 477/2/5 481/2/5
f 485/2/5 479/2/5 478/2/5
f 486/2/5 479/2/5 485/2/5
f 488/2/5 481/2/5 480/2/5
f 489/2/5 481/2/5 488/2/5
f 490/2/5 483/2/5 482/2/5
f 491/2/5 483/2/5 490/2/5
f 492/2/5 485/2/5 484/2/5
f 493/2/5 485/2/5 492/2/5
f 494/2/5 487/2/5 486/2/5
f 495/2/5 487/2/5 494/2/5
f 496/2/5 490/2/5 489/2/5
f 497/2/5 490/2/5 496/2/5
f 498/2/5 494/2/5 493/2/5
f 499/2/5 494/2/5 498/2/5
f 504/2/5 501/2/5 500/2/5
f 505/2/5 501/2/5 504/2/5
f 506/2/5 503/2/5 502/2/5
f 507/2/5 503/2/5 506/2/5
f 516/2/5 509/2/5 508/2/5
f 517/2/5 509/2/5 516/2/5
f 518/2/5 511/2/5 510/2/5
f 519/2/5 511/2/5 518/2/5
f 522/2/5 513/2/5 512/2/5
f 523/2/5 513/2/5 522/2/5
f 524/2/5 515/2/5 514/2/5
f 525/2/5 515/2/5 524/2/5
f 530/2/5 521/2/5 520/2/5
f 531/2/5 521/2/5 530/2/5
f 536/2/5 527/2/5 526/2/5
f 537/2/5 527/2/5 536/2/5
f 538/2/5 529/2/5 528/2/5
f 539/2/5 529/2/5 538/2/5
f 540/2/5 533/2/5 532/2/5
f 541/2/5 533/2/5 540/2/5
f 542/2/5 535/2/5 534/2/5
f 543/2/5 535/2/5 542/2/5
f 546/2/5 545/2/5 544/2/5
f 547/2/5 545/2/5 546/2/5
f 548/2/5 545/2/5 547/2/5
f 549/2/5 545/2/5 548/2/5
f 550/2/5 548/2/5 547/2/5
f 551/2/5 548/2/5 550/2/5
f 555/2/5 553/2/5 552/2/5
f 556/2/5 553/2/5 555/2/5
f 558/2/5 556/2/5 555/2/5
f 558/2/5 557/2/5 556/2/5
f 558/2/5 555/2/5 554/2/5
f 559/2/5 557/2/5 558/2/5
f 564/2/5 561/2/5 560/2/5
f 565/2/5 561/2/5 564/2/5
f 569/2/5 563/2/5 562/2/5
f 570/2/5 563/2/5 569/2/5
f 571/2/5 567/2/5 566/2/5
f 572/2/5 567/2/5 571/2/5
f 574/2/5 569/2/5 568/2/5
f 575/2/5 569/2/5 574/2/5
f 578/2/5 573/2/5 572/2/5
f 579/2/5 573/2/5 578/2/5
f 580/2/5 576/2/5 575/2/5
f 581/2/5 576/2/5 580/2/5
f 582/2/5 578/2/5 577/2/5
f 583/2/5 578/2/5 582/2/5
f 588/2/5 585/2/5 584/2/5
f 589/2/5 585/2/5 588/2/5
f 590/2/5 587/2/5 586/2/5
f 591/2/5 587/2/5 590/2/5
f 594/2/5 593/2/5 592/2/5
f 595/2/5 593/2/5 594/2/5
f 598/3/5 597/3/5 596/3/5
f 599/3/5 597/3/5 598/3/5
f 604/3/5 601/3/5 600/3/5
f 605/3/5 601/3/5 604/3/5
f 608/3/5 603/3/5 602/3/5
f 609/3/5 603/3/5 608/3/5
f 610/3/5 607/3/5 606/3/5
f 611/3/5 607/3/5 610/3/5
f 616/3/5 613/3/5 612/3/5
f 617/3/5 613/3/5 616/3/5
f 618/3/5 615/3/5 614/3/5
f 619/3/5 615/3/5 618/3/5
f 620/3/6 621/3/6 624/3/6
f 624/3/6 621/3/6 625/3/6
f 622/3/6 623/3/6 626/3/6
f 626/3/6 623/3/6 627/3/6
f 628/3/6 629/3/6 633/3/6
f 629/5/6 630/5/6 634/5/6
f 633/3/6 629/3/6 634/3/6
f 634/5/6 630/5/6 635/5/6
f 631/3/6 632/3/6 638/3/6
f 638/3/6 632/3/6 639/3/6
f 636/3/6 637/3/6 640/3/6
f 640/3/6 637/3/6 641/3/6
f 642/2/6 643/2/6 644/2/6
f 644/2/6 643/2/6 645/2/6
f 646/3/6 647/3/6 648/3/6
f 648/3/6 647/3/6 649/3/6
f 650/2/6 651/2/6 653/2/6
f 653/2/6 651/2/6 654/2/6
f 654/2/6 651/2/6 655/2/6
f 655/2/6 651/2/6 656/2/6
f 652/2/6 653/2/6 659/2/6
f 653/2/6 654/2/6 659/2/6
f 659/2/6 654/2/6 660/2/6
f 655/2/6 656/2/6 661/2/6
f 656/2/6 657/2/6 661/2/6
f 661/2/6 657/2/6 662/2/6
f 658/2/6 659/2/6 664/2/6
f 664/2/6 659/2/6 665/2/6
f 662/2/6 663/2/6 668/2/6
f 668/2/6 663/2/6 669/2/6
f 665/2/6 666/2/6 670/2/6
f 670/2/6 666/2/6 671/2/6
f 667/2/6 668/2/6 672/2/6
f 672/2/6 668/2/6 673/2/6
f 674/2/6 675/2/6 678/2/6
f 678/2/6 675/2/6 679/2/6
f 676/2/6 677/2/6 682/2/6
f 682/2/6 677/2/6 683/2/6
f 680/2/6 681/2/6 686/2/6
f 686/2/6 681/2/6 687/2/6
f 684/2/6 685/2/6 688/2/6
f 688/2/6 685/2/6 689/2/6
f 690/2/6 691/2/6 692/2/6
f 692/2/6 691/2/6 693/2/6
f 690/2/6 692/2/6 694/2/6
f 693/2/6 691/2/6 695/2/6
f 690/2/6 694/2/6 696/2/6
f 694/2/6 695/2/6 696/2/6
f 695/2/6 691/2/6 697/2/6
f 696/2/6 695/2/6 697/2/6
f 698/2/6 699/2/6 700/2/6
f 700/2/6 699/2/6 701/2/6
